<?xml version="1.0" encoding="UTF-8"?>
<svg version="1.1" xmlns="http://www.w3.org/2000/svg" width="160" height="160">
<path d="M0 0 C4.66738852 3.65643852 8.87489561 7.75117265 13 12 C14.04800781 13.051875 14.04800781 13.051875 15.1171875 14.125 C29.91308577 29.90729148 35.01311104 51.12339591 34.33984375 72.19921875 C33.31897752 90.1424868 26.81287064 106.43077929 15 120 C14.55527344 120.58652344 14.11054688 121.17304688 13.65234375 121.77734375 C2.41331161 136.22752793 -15.75696401 143.58937889 -33.27734375 146.5546875 C-54.54335494 149.09857551 -75.13144041 145.15922036 -93 133 C-96.50959551 130.16725505 -99.76757388 127.14232365 -103 124 C-103.63679688 123.42507812 -104.27359375 122.85015625 -104.9296875 122.2578125 C-110.02409272 117.5256761 -113.51636281 111.98314688 -117 106 C-117.391875 105.33097656 -117.78375 104.66195312 -118.1875 103.97265625 C-127.51604543 86.73671097 -128.79088976 63.91847627 -123.97265625 45.09375 C-117.04229951 23.05020567 -103.82510821 5.77798225 -83.3125 -5.25 C-56.73049776 -17.48182108 -24.51800782 -17.17412264 0 0 Z " fill="#AFD5B8" transform="translate(126,13)"/>
<path d="M0 0 C0.9907251 -0.00478363 1.9814502 -0.00956726 3.00219727 -0.01449585 C5.08644204 -0.01788203 7.17074085 -0.00876993 9.25488281 0.01220703 C12.42894928 0.03899035 15.59947986 0.01241475 18.7734375 -0.01953125 C20.8072994 -0.01622693 22.84115912 -0.00982022 24.875 0 C25.81480713 -0.01012115 26.75461426 -0.02024231 27.72290039 -0.03067017 C34.17971536 0.08309318 38.41424989 1.56415917 43.4375 5.6640625 C49.73097986 12.28877814 49.8010026 18.69899076 49.6171875 27.46875 C49.11616915 41.09521216 46.0621197 54.90481046 36.31640625 65.04296875 C33.26768835 67.67335946 29.97404911 69.7534074 26.4375 71.6640625 C27.22125 72.6953125 28.005 73.7265625 28.8125 74.7890625 C34.04781148 81.67763024 34.21765543 89.33240263 33.4375 97.6640625 C31.7331481 104.83744235 27.48562568 109.5981903 21.4375 113.6640625 C15.66208724 116.51352111 9.73865783 116.40313422 3.4375 115.6640625 C-2.87237833 113.31924328 -7.74077218 108.41733862 -10.6640625 102.39453125 C-12.72912615 96.11853346 -12.82763395 88.81457463 -10.359375 82.66796875 C-7.87420652 78.44443747 -5.09539301 75.05871187 -1.5625 71.6640625 C-2.05878906 71.32375 -2.55507812 70.9834375 -3.06640625 70.6328125 C-14.31352828 62.60830039 -20.60351699 53.06003023 -23.16333008 39.42041016 C-23.8574206 34.62757716 -23.9712867 29.87565918 -24 25.0390625 C-24.03287109 24.05421875 -24.06574219 23.069375 -24.09960938 22.0546875 C-24.1494467 15.25868918 -23.11724187 10.78866286 -18.5625 5.6640625 C-12.73403164 0.69763217 -7.47379394 -0.08048824 0 0 Z " fill="#428F67" transform="translate(67.5625,25.3359375)"/>
<path d="M0 0 C4.66738852 3.65643852 8.87489561 7.75117265 13 12 C14.04800781 13.051875 14.04800781 13.051875 15.1171875 14.125 C29.91308577 29.90729148 35.01311104 51.12339591 34.33984375 72.19921875 C33.31897752 90.1424868 26.81287064 106.43077929 15 120 C14.55527344 120.58652344 14.11054688 121.17304688 13.65234375 121.77734375 C2.41331161 136.22752793 -15.75696401 143.58937889 -33.27734375 146.5546875 C-54.54335494 149.09857551 -75.13144041 145.15922036 -93 133 C-96.50959551 130.16725505 -99.76757388 127.14232365 -103 124 C-103.63679688 123.42507812 -104.27359375 122.85015625 -104.9296875 122.2578125 C-110.02409272 117.5256761 -113.51636281 111.98314688 -117 106 C-117.391875 105.33097656 -117.78375 104.66195312 -118.1875 103.97265625 C-127.51604543 86.73671097 -128.79088976 63.91847627 -123.97265625 45.09375 C-117.04229951 23.05020567 -103.82510821 5.77798225 -83.3125 -5.25 C-56.73049776 -17.48182108 -24.51800782 -17.17412264 0 0 Z M-102.09375 17.75 C-115.8555568 33.99344409 -121.59525798 53.48729999 -120.25 74.57421875 C-118.32619868 93.24110347 -109.37398408 109.21159997 -96 122 C-95.23171875 122.73863281 -94.4634375 123.47726563 -93.671875 124.23828125 C-78.26719421 137.73047616 -58.39218291 142.28458022 -38.39355469 141.20263672 C-23.11078896 139.90880812 -7.32658325 132.25545767 4 122 C5.00740234 121.12988281 5.00740234 121.12988281 6.03515625 120.2421875 C15.15054552 111.84689642 20.93548385 100.57771267 25 89 C25.3196875 88.0925 25.639375 87.185 25.96875 86.25 C31.8081709 66.78526367 27.46271986 46.3947961 18.08496094 28.88574219 C15.55042456 24.4805309 12.44499883 20.71270835 9 17 C8.48308594 16.39285156 7.96617187 15.78570313 7.43359375 15.16015625 C-0.72745736 6.14004713 -12.63668338 -0.10007303 -24 -4 C-24.90621094 -4.31839844 -25.81242187 -4.63679687 -26.74609375 -4.96484375 C-53.84282146 -13.12016956 -83.0669934 -2.21249872 -102.09375 17.75 Z " fill="#46916B" transform="translate(126,13)"/>
<path d="M0 0 C0.9907251 -0.00478363 1.9814502 -0.00956726 3.00219727 -0.01449585 C5.08644204 -0.01788203 7.17074085 -0.00876993 9.25488281 0.01220703 C12.42894928 0.03899035 15.59947986 0.01241475 18.7734375 -0.01953125 C20.8072994 -0.01622693 22.84115912 -0.00982022 24.875 0 C25.81480713 -0.01012115 26.75461426 -0.02024231 27.72290039 -0.03067017 C34.17971536 0.08309318 38.41424989 1.56415917 43.4375 5.6640625 C49.73097986 12.28877814 49.8010026 18.69899076 49.6171875 27.46875 C49.11616915 41.09521216 46.0621197 54.90481046 36.31640625 65.04296875 C33.26768835 67.67335946 29.97404911 69.7534074 26.4375 71.6640625 C27.22125 72.6953125 28.005 73.7265625 28.8125 74.7890625 C34.04781148 81.67763024 34.21765543 89.33240263 33.4375 97.6640625 C31.7331481 104.83744235 27.48562568 109.5981903 21.4375 113.6640625 C15.66208724 116.51352111 9.73865783 116.40313422 3.4375 115.6640625 C-2.87237833 113.31924328 -7.74077218 108.41733862 -10.6640625 102.39453125 C-12.72912615 96.11853346 -12.82763395 88.81457463 -10.359375 82.66796875 C-7.87420652 78.44443747 -5.09539301 75.05871187 -1.5625 71.6640625 C-2.05878906 71.32375 -2.55507812 70.9834375 -3.06640625 70.6328125 C-14.31352828 62.60830039 -20.60351699 53.06003023 -23.16333008 39.42041016 C-23.8574206 34.62757716 -23.9712867 29.87565918 -24 25.0390625 C-24.03287109 24.05421875 -24.06574219 23.069375 -24.09960938 22.0546875 C-24.1494467 15.25868918 -23.11724187 10.78866286 -18.5625 5.6640625 C-12.73403164 0.69763217 -7.47379394 -0.08048824 0 0 Z M-17.90625 11.328125 C-20.08283139 15.71208846 -20.16892491 19.20922241 -20.0625 24.0390625 C-20.05041504 24.91739746 -20.03833008 25.79573242 -20.02587891 26.70068359 C-19.67257858 38.53089137 -17.53417926 51.43459163 -9.5625 60.6640625 C-2.28099562 67.10307877 4.9989075 70.22478601 14.7578125 69.97265625 C23.39928853 68.97750085 30.82000185 65.33084277 36.4375 58.6640625 C38.55831947 55.46898983 40.06528186 52.24014613 41.4375 48.6640625 C41.7571875 47.8390625 42.076875 47.0140625 42.40625 46.1640625 C44.61031029 39.14372232 44.77618733 32.08806316 44.875 24.7890625 C44.89731689 23.78979736 44.91963379 22.79053223 44.94262695 21.76098633 C44.92451737 15.94389575 44.60847108 12.0918155 40.4375 7.6640625 C35.14753857 4.24753305 30.52803739 4.21087801 24.4375 4.23046875 C23.48359375 4.2252269 22.5296875 4.21998505 21.546875 4.21458435 C19.53646821 4.20818054 17.52602386 4.20947983 15.515625 4.21801758 C12.44723625 4.22653547 9.38070548 4.19773025 6.3125 4.16601562 C4.35416722 4.16440357 2.39583116 4.16498122 0.4375 4.16796875 C-0.47515625 4.15673477 -1.3878125 4.14550079 -2.328125 4.13392639 C-9.31652943 4.21005966 -13.18667984 5.96354692 -17.90625 11.328125 Z " fill="#165E45" transform="translate(67.5625,25.3359375)"/>
<path d="M0 0 C1.47339088 -0.00361794 1.47339088 -0.00361794 2.97654724 -0.00730896 C5.04845222 -0.00633138 7.12038359 0.0070409 9.19213867 0.03198242 C12.36401963 0.06632965 15.53312006 0.05262679 18.70507812 0.03320312 C20.72006394 0.04010064 22.73504258 0.04977217 24.75 0.0625 C26.17198448 0.0550602 26.17198448 0.0550602 27.62269592 0.04747009 C34.12762014 0.16393695 34.12762014 0.16393695 37.40625 2.40258789 C38.91652516 4.80025488 39.31203184 6.0115051 39.3046875 8.81640625 C39.30533203 9.59757812 39.30597656 10.37875 39.30664062 11.18359375 C39.28666016 11.99054687 39.26667969 12.7975 39.24609375 13.62890625 C39.25318359 14.43585937 39.26027344 15.2428125 39.26757812 16.07421875 C39.22987104 19.58967934 39.14752186 21.99650394 37.46875 25.12890625 C34.77042002 27.56692675 32.17238441 27.75860908 28.69189453 27.8059082 C27.45513474 27.82516106 27.45513474 27.82516106 26.19338989 27.84480286 C25.30586029 27.85218979 24.41833069 27.85957672 23.50390625 27.8671875 C22.12971024 27.87929512 22.12971024 27.87929512 20.72775269 27.89164734 C18.78938686 27.90547498 16.85099683 27.91620304 14.91259766 27.92407227 C11.95167927 27.94130102 8.99187308 27.98520039 6.03125 28.02929688 C4.14714362 28.03942282 2.26302776 28.04793923 0.37890625 28.0546875 C-0.94631546 28.08094963 -0.94631546 28.08094963 -2.29830933 28.10774231 C-6.46179425 28.09308126 -8.62272467 27.98514405 -12.22705078 25.72729492 C-15.68852853 22.02963133 -15.47139532 18.66628223 -15.56640625 13.81640625 C-15.60378906 13.10419922 -15.64117187 12.39199219 -15.6796875 11.65820312 C-15.74046839 8.00797319 -15.40278973 5.93058709 -13.2956543 2.92333984 C-8.89056671 -0.3325794 -5.34681113 -0.07493841 0 0 Z " fill="#125C42" transform="translate(68.19140625,35.37109375)"/>
<path d="M0 0 C1.13610718 0.01051392 1.13610718 0.01051392 2.29516602 0.02124023 C5.76147983 0.19389478 7.93301083 0.44073445 10.87109375 2.3671875 C12.50136266 4.45685887 13.52858078 6.3512809 14.5 8.8125 C15.180625 10.483125 15.180625 10.483125 15.875 12.1875 C16.98429682 18.62142155 17.79990792 24.2883402 14.375 30.125 C11.03312304 34.80173433 7.32565145 38.70857731 1.5 39.8125 C-4.55559623 40.60928898 -8.74527055 39.83822662 -13.7734375 36.3125 C-17.78339336 32.82873745 -20.1279958 28.68493751 -20.80859375 23.4296875 C-21.11173229 16.98110394 -20.16958989 13.13050075 -16.3984375 7.8828125 C-11.08083761 2.08378381 -7.87946069 -0.12331869 0 0 Z " fill="#AED4B7" transform="translate(80.5,97.1875)"/>
<path d="M0 0 C2.87472735 1.24988145 4.44101438 2.25468584 6.3125 4.75 C7.63780889 9.08737455 7.60880922 12.69540881 5.6875 16.8125 C3.74161911 19.3349382 2.1275845 20.81840399 -1.0859375 21.3359375 C-5.11172399 21.40463693 -7.40531432 21.35428083 -10.9375 19.25 C-14.31349026 15.56710154 -15 14.19549688 -15 9.0625 C-14.43999084 5.61876552 -13.85809118 4.83386285 -11.4375 2 C-6.97827601 -0.59445759 -5.08808639 -0.64610621 0 0 Z " fill="#105C41" transform="translate(84,67)"/>
<path d="M0 0 C1.9375 1.125 1.9375 1.125 3 3 C3.42030443 6.29238472 3.295454 8.33957342 1.9375 11.375 C0 13 0 13 -3.4375 13.5 C-7 13 -7 13 -9.5 11.4375 C-11 9 -11 9 -10.9375 5.375 C-9.26346191 -0.65153711 -5.61343058 -0.50119916 0 0 Z " fill="#418E66" transform="translate(84,71)"/>
<path d="M0 0 C2.9375 0.875 2.9375 0.875 4.9375 3.875 C5.47723013 10.6755997 5.47723013 10.6755997 3.8125 14.375 C1.9375 15.875 1.9375 15.875 -1.125 16.3125 C-2.094375 16.168125 -3.06375 16.02375 -4.0625 15.875 C-6.20803377 12.65669935 -6.35833868 11.60713493 -6.375 7.875 C-6.39175781 7.00875 -6.40851563 6.1425 -6.42578125 5.25 C-6.0625 2.875 -6.0625 2.875 -4.734375 1.0546875 C-3.0625 -0.125 -3.0625 -0.125 0 0 Z " fill="#A0C6AB" transform="translate(81.0625,41.125)"/>
<path d="M0 0 C1.423125 0.4021875 1.423125 0.4021875 2.875 0.8125 C4.17589831 3.41429663 4.04340078 5.4094188 4.0625 8.3125 C4.07667969 9.2921875 4.09085938 10.271875 4.10546875 11.28125 C3.875 13.8125 3.875 13.8125 1.875 15.8125 C-1.125 16.0625 -1.125 16.0625 -4.125 15.8125 C-6.72686108 13.21063892 -6.42310177 11.98895645 -6.4375 8.375 C-6.45425781 7.40691406 -6.47101562 6.43882813 -6.48828125 5.44140625 C-6.125 2.8125 -6.125 2.8125 -4.80078125 0.953125 C-3.125 -0.1875 -3.125 -0.1875 0 0 Z " fill="#A8CFB2" transform="translate(66.125,41.1875)"/>
<path d="M0 0 C2.05078125 0.03255208 4.1015625 0.06510417 6.15234375 0.09765625 C6.15234375 1.08765625 6.15234375 2.07765625 6.15234375 3.09765625 C4.17234375 3.09765625 2.19234375 3.09765625 0.15234375 3.09765625 C0.15234375 4.08765625 0.15234375 5.07765625 0.15234375 6.09765625 C3.12234375 6.59265625 3.12234375 6.59265625 6.15234375 7.09765625 C7.47837115 12.52231378 7.47837115 12.52231378 6.08984375 14.97265625 C3.39334128 16.53836736 1.21103916 16.30156928 -1.84765625 16.09765625 C-2.17765625 14.77765625 -2.50765625 13.45765625 -2.84765625 12.09765625 C0.12234375 12.59265625 0.12234375 12.59265625 3.15234375 13.09765625 C3.15234375 11.44765625 3.15234375 9.79765625 3.15234375 8.09765625 C1.17234375 8.42765625 -0.80765625 8.75765625 -2.84765625 9.09765625 C-2.9453125 2.9453125 -2.9453125 2.9453125 -2.84765625 1.09765625 C-1.84765625 0.09765625 -1.84765625 0.09765625 0 0 Z " fill="#A1C9AD" transform="translate(93.84765625,40.90234375)"/>
<path d="M0 0 C2.0625 0.4375 2.0625 0.4375 4 1 C4 3.64 4 6.28 4 9 C2.35 9.33 0.7 9.66 -1 10 C-1.02689216 8.52093108 -1.04634621 7.04172517 -1.0625 5.5625 C-1.07410156 4.73878906 -1.08570312 3.91507813 -1.09765625 3.06640625 C-1 1 -1 1 0 0 Z " fill="#165D44" transform="translate(79,44)"/>
<path d="M0 0 C1.32 0 2.64 0 4 0 C4 3.3 4 6.6 4 10 C2.68 10 1.36 10 0 10 C0 6.7 0 3.4 0 0 Z " fill="#155E45" transform="translate(63,44)"/>
<path d="M0 0 C0.33 0 0.66 0 1 0 C1.36 7.2 1.36 7.2 -0.125 10.5 C-2.75881415 12.60705132 -4.72611257 12.29101222 -8 12 C-8.33 10.68 -8.66 9.36 -9 8 C-8.05125 8.020625 -7.1025 8.04125 -6.125 8.0625 C-3.09333717 8.22551826 -3.09333717 8.22551826 -1 7 C-0.59270772 4.67843403 -0.25561323 2.3431213 0 0 Z " fill="#98C0A5" transform="translate(85,45)"/>
<path d="M0 0 C2.64 0 5.28 0 8 0 C8 0.99 8 1.98 8 3 C3.545 3.495 3.545 3.495 -1 4 C-0.67 2.68 -0.34 1.36 0 0 Z " fill="#95BEA2" transform="translate(92,41)"/>
<path d="M0 0 C1.66611905 -0.042721 3.33382885 -0.04063832 5 0 C6 1 6 1 6.09765625 3.06640625 C6.08605469 3.89011719 6.07445313 4.71382812 6.0625 5.5625 C6.05347656 6.38878906 6.04445313 7.21507812 6.03515625 8.06640625 C6.01775391 9.02353516 6.01775391 9.02353516 6 10 C5.01 10.495 5.01 10.495 4 11 C3.896875 9.741875 3.79375 8.48375 3.6875 7.1875 C3.35141192 4.39500343 3.19974124 3.25566879 1.4375 1 C0.963125 0.67 0.48875 0.34 0 0 Z " fill="#A8D0B2" transform="translate(79,42)"/>
<path d="M0 0 C1.65 0 3.3 0 5 0 C6.20272819 2.40545638 6.10071472 3.94996953 6.0625 6.625 C6.05347656 7.44226562 6.04445313 8.25953125 6.03515625 9.1015625 C6.02355469 9.72804688 6.01195313 10.35453125 6 11 C5.34 11 4.68 11 4 11 C3.896875 9.741875 3.79375 8.48375 3.6875 7.1875 C3.35141192 4.39500343 3.19974124 3.25566879 1.4375 1 C0.963125 0.67 0.48875 0.34 0 0 Z " fill="#AAD2B5" transform="translate(64,42)"/>
<path d="M0 0 C0.33 0 0.66 0 1 0 C1 2.64 1 5.28 1 8 C1.66 8 2.32 8 3 8 C2.34 9.32 1.68 10.64 1 12 C-0.32 12 -1.64 12 -3 12 C-3 11.34 -3 10.68 -3 10 C-2.34 9.67 -1.68 9.34 -1 9 C-0.53348793 6.87423218 -0.53348793 6.87423218 -0.375 4.4375 C-0.30023438 3.61121094 -0.22546875 2.78492188 -0.1484375 1.93359375 C-0.09945312 1.29550781 -0.05046875 0.65742187 0 0 Z " fill="#8FB89D" transform="translate(67,45)"/>
<path d="M0 0 C2.125 0.375 2.125 0.375 4 1 C3.67 1.66 3.34 2.32 3 3 C2.01 3 1.02 3 0 3 C0 5.97 0 8.94 0 12 C-0.33 12 -0.66 12 -1 12 C-2 5.375 -2 5.375 -2 2 C-1.34 1.34 -0.68 0.68 0 0 Z " fill="#8BB49A" transform="translate(63,41)"/>
</svg>
